<?xml version="1.0" encoding="UTF-8"?><svg id="Layer_1" xmlns="http://www.w3.org/2000/svg" viewBox="0 0 432 432"><path d="m216,432c-2.15,0-4.29-.04-6.42-.1l44.14-121.32h60.75c10.66,0,22.37-8.2,26.01-18.21l47.89-131.55c7.83-21.54-4.5-39.16-27.42-39.16h-84.28l-70.71,194.32h-.03l-40.09,110.15C70.74,403.52,0,318.03,0,216S66.72,33.42,157.68,7.97l-41.37,113.69h-.01l-68.77,188.91h45.78s58.48-160.53,58.48-160.53h34.4l-58.48,160.53h45.76s54.5-149.76,54.5-149.76c7.84-21.54-4.5-39.16-27.39-39.16h-38.48L206.29.23c3.22-.14,6.45-.23,9.71-.23,119.29,0,216,96.71,216,216s-96.71,216-216,216Zm130.69-282.06h-34.39l-48.17,132.16h34.4l48.17-132.16Z" style="fill:#0096d6; stroke-width:0px;"/></svg>